HIERARCHY
ROOT Hips
{
	OFFSET 0.00000 0.00000 0.00000
	CHANNELS 6 Xposition Yposition Zposition Zrotation Yrotation Xrotation 
	JOINT LHipJoint
	{
		OFFSET 0 0 0
		CHANNELS 3 Zrotation Yrotation Xrotation
		JOINT LeftUpLeg
		{
			OFFSET 1.17584 -1.63585 1.00361
			CHANNELS 3 Zrotation Yrotation Xrotation
			JOINT LeftLeg
			{
				OFFSET 2.23889 -6.15131 0.00000
				CHANNELS 3 Zrotation Yrotation Xrotation
				JOINT LeftFoot
				{
					OFFSET 2.65161 -7.28525 0.00000
					CHANNELS 3 Zrotation Yrotation Xrotation
					JOINT LeftToeBase
					{
						OFFSET 0.24898 -0.68407 1.57235
						CHANNELS 3 Zrotation Yrotation Xrotation
						End Site
						{
							OFFSET 0.00000 -0.00000 0.85838
						}
					}
				}
			}
		}
	}
	JOINT RHipJoint
	{
		OFFSET 0 0 0
		CHANNELS 3 Zrotation Yrotation Xrotation
		JOINT RightUpLeg
		{
			OFFSET -1.15592 -1.63585 1.00361
			CHANNELS 3 Zrotation Yrotation Xrotation
			JOINT RightLeg
			{
				OFFSET -2.34071 -6.43104 0.00000
				CHANNELS 3 Zrotation Yrotation Xrotation
				JOINT RightFoot
				{
					OFFSET -2.59113 -7.11908 0.00000
					CHANNELS 3 Zrotation Yrotation Xrotation
					JOINT RightToeBase
					{
						OFFSET -0.17867 -0.49089 1.70981
						CHANNELS 3 Zrotation Yrotation Xrotation
						End Site
						{
							OFFSET -0.00000 -0.00000 0.89861
						}
					}
				}
			}
		}
	}
	JOINT LowerBack
	{
		OFFSET 0 0 0
		CHANNELS 3 Zrotation Yrotation Xrotation
		JOINT Spine
		{
			OFFSET -0.02255 1.90764 -0.16605
			CHANNELS 3 Zrotation Yrotation Xrotation
			JOINT Spine1
			{
				OFFSET -0.00365 1.92150 -0.04898
				CHANNELS 3 Zrotation Yrotation Xrotation
				JOINT Neck
				{
					OFFSET 0 0 0
					CHANNELS 3 Zrotation Yrotation Xrotation
					JOINT Neck1
					{
						OFFSET 0.00372 1.59170 0.08694
						CHANNELS 3 Zrotation Yrotation Xrotation
						JOINT Head
						{
							OFFSET 0.12558 1.58643 -0.08078
							CHANNELS 3 Zrotation Yrotation Xrotation
							End Site
							{
								OFFSET 0.04211 1.60835 -0.03803
							}
						}
					}
				}
				JOINT LeftShoulder
				{
					OFFSET 0 0 0
					CHANNELS 3 Zrotation Yrotation Xrotation
					JOINT LeftArm
					{
						OFFSET 3.69324 0.96316 0.19077
						CHANNELS 3 Zrotation Yrotation Xrotation
						JOINT LeftForeArm
						{
							OFFSET 4.87796 -0.00000 -0.00000
							CHANNELS 3 Zrotation Yrotation Xrotation
							JOINT LeftHand
							{
								OFFSET 3.23169 -0.00000 0.00000
								CHANNELS 3 Zrotation Yrotation Xrotation
								JOINT LeftFingerBase
								{
									OFFSET 0 0 0
									CHANNELS 3 Zrotation Yrotation Xrotation
									JOINT LeftHandIndex1
									{
										OFFSET 0.73132 -0.00000 0.00000
										CHANNELS 3 Zrotation Yrotation Xrotation
										End Site
										{
											OFFSET 0.58961 -0.00000 0.00000
										}
									}
								}
								JOINT LThumb
								{
									OFFSET 0 0 0
									CHANNELS 3 Zrotation Yrotation Xrotation
									End Site
									{
										OFFSET 0.59861 -0.00000 0.59861
									}
								}
							}
						}
					}
				}
				JOINT RightShoulder
				{
					OFFSET 0 0 0
					CHANNELS 3 Zrotation Yrotation Xrotation
					JOINT RightArm
					{
						OFFSET -3.66103 0.75145 0.08281
						CHANNELS 3 Zrotation Yrotation Xrotation
						JOINT RightForeArm
						{
							OFFSET -4.91430 -0.00000 0.00000
							CHANNELS 3 Zrotation Yrotation Xrotation
							JOINT RightHand
							{
								OFFSET -3.29093 -0.00000 0.00000
								CHANNELS 3 Zrotation Yrotation Xrotation
								JOINT RightFingerBase
								{
									OFFSET 0 0 0
									CHANNELS 3 Zrotation Yrotation Xrotation
									JOINT RightHandIndex1
									{
										OFFSET -0.54512 -0.00000 0.00000
										CHANNELS 3 Zrotation Yrotation Xrotation
										End Site
										{
											OFFSET -0.43949 -0.00000 0.00000
										}
									}
								}
								JOINT RThumb
								{
									OFFSET 0 0 0
									CHANNELS 3 Zrotation Yrotation Xrotation
									End Site
									{
										OFFSET -0.44620 -0.00000 0.44620
									}
								}
							}
						}
					}
				}
			}
		}
	}
}
MOTION
Frames: 15
Frame Time: .0083333
26.2620 15.5939 -0.6786 181.9350 -146.8330 -175.7860 0.0000 0.0000 0.0000 -12.9382 2.3394 -30.6250 8.7422 16.6389 55.1942 2.0223 -15.2607 -26.1400 1.6524 -8.1011 -23.0215 0.0000 0.0000 0.0000 -7.3448 16.0750 -34.4614 -11.0261 -17.9479 62.8664 -0.0291 -1.2089 -3.9067 -2.8582 10.4619 -30.4858 -3.9307 -1.2444 4.7616 0.0656 -1.8122 4.1996 2.3233 -1.0170 1.7834 -7.1211 -13.4666 4.3678 13.8638 -17.3243 -15.7381 5.8459 -9.1271 -3.4938 -0.0000 0.0000 0.0000 -82.4301 -14.2216 58.6206 22.2683 -33.2790 -6.7325 -0.0000 -0.0000 18.0440 46.1815 -33.9209 -30.1802 -7.1250 0.0000 -0.0000 7.1666 -13.8853 -8.7363 -0.0000 0.0000 0.0000 86.3296 11.4598 38.0331 -20.2402 30.9307 -5.6543 0.0000 0.0000 4.1805 -19.2537 -16.2565 5.5846 7.1250 -0.0000 -0.0000 8.1179 -46.9802 -0.3992
26.3189 15.6045 -0.6463 182.0530 -147.2560 -175.7790 0.0000 0.0000 0.0000 -13.4192 2.1209 -30.4664 8.6188 16.5560 54.7622 2.0806 -15.3049 -26.4910 1.5739 -7.9157 -22.4582 0.0000 0.0000 0.0000 -7.1682 16.5975 -34.3991 -11.0835 -17.9757 63.0523 -0.0205 -2.4944 -4.6939 -2.4244 9.6992 -28.0081 -3.9687 -1.3045 4.6921 0.1072 -1.8905 4.1534 2.3884 -1.0564 1.7828 -7.2108 -13.5944 4.5198 13.9388 -17.4968 -15.9186 5.8997 -9.2179 -3.5392 0.0000 -0.0000 0.0000 -82.2607 -14.0484 58.1820 21.0672 -31.9067 -6.0854 -0.0000 -0.0000 17.3845 45.4363 -33.6723 -29.3774 -7.1250 0.0000 -0.0000 6.8594 -13.2618 -8.3022 0.0000 -0.0000 0.0000 86.4628 11.0100 35.5384 -18.8721 29.2594 -4.9682 0.0000 0.0000 4.1698 -18.7791 -17.3431 5.7876 7.1250 -0.0000 -0.0000 8.8558 -48.0346 -0.6679
26.3709 15.6250 -0.6141 182.1370 -147.8170 -175.6780 0.0000 0.0000 0.0000 -13.8829 1.6654 -30.2487 8.4580 16.4460 54.1961 2.1505 -15.1448 -26.8701 1.5154 -7.7740 -22.0297 0.0000 0.0000 0.0000 -6.8276 17.0363 -34.2666 -11.0897 -17.9787 63.0726 -0.0111 -3.5562 -5.5667 -1.8764 8.6038 -24.5637 -3.9314 -1.3797 4.5725 0.1365 -1.9842 4.0824 2.3978 -1.1010 1.7823 -7.2481 -13.7538 4.6127 13.9907 -17.7105 -16.0257 5.9295 -9.3279 -3.5558 -0.0000 0.0000 0.0000 -82.0808 -13.9053 57.7568 19.8470 -30.4576 -5.4536 -0.0000 -0.0000 16.7388 44.4133 -33.3137 -28.2842 -7.1250 0.0000 -0.0000 6.4371 -12.4006 -7.7124 -0.0000 0.0000 0.0000 86.5284 10.4724 33.0214 -17.5626 27.5935 -4.3447 0.0000 0.0000 4.0778 -18.4361 -18.4577 6.0248 7.1250 -0.0000 -0.0000 9.5099 -49.1271 -0.9759
26.4179 15.6559 -0.5828 182.1610 -148.5310 -175.4890 0.0000 0.0000 0.0000 -14.2845 0.9595 -29.9673 8.2684 16.3131 53.5236 2.2221 -14.8077 -27.2286 1.4863 -7.7023 -21.8133 0.0000 0.0000 0.0000 -6.2847 17.3731 -34.0530 -11.0422 -17.9557 62.9185 -0.0074 -4.3055 -6.4257 -1.3581 7.3767 -20.8363 -3.8314 -1.4785 4.4270 0.1754 -2.1065 3.9939 2.3819 -1.1580 1.7780 -7.2441 -13.9310 4.6547 14.0231 -17.9459 -16.0950 5.9410 -9.4480 -3.5563 0.0000 -0.0000 0.0000 -81.9151 -13.7822 57.2805 18.6247 -28.9497 -4.8479 -0.0000 -0.0000 16.2142 43.1538 -32.7458 -26.8910 -7.1250 0.0000 -0.0000 5.9437 -11.2220 -7.0208 0.0000 -0.0000 0.0000 86.5110 9.8654 30.5211 -16.2990 25.9244 -3.7758 0.0000 0.0000 4.0280 -18.2993 -19.6459 6.3443 7.1250 -0.0000 -0.0000 10.0235 -50.3183 -1.3255
26.4595 15.6971 -0.5533 182.1260 -149.4000 -175.2310 0.0000 0.0000 0.0000 -14.6030 0.0135 -29.6179 8.0569 16.1609 52.7673 2.2818 -14.3444 -27.5036 1.4839 -7.6963 -21.7954 0.0000 0.0000 0.0000 -5.5326 17.6314 -33.7481 -10.9432 -17.9072 62.5969 -0.0124 -4.7352 -7.1787 -0.9776 6.2940 -17.6398 -3.6843 -1.5997 4.2877 0.2256 -2.2582 3.8945 2.3521 -1.2282 1.7592 -7.2060 -14.1268 4.6403 14.0509 -18.2026 -16.1401 5.9397 -9.5786 -3.5419 -0.0000 -0.0000 0.0000 -81.7659 -13.6762 56.6904 17.4202 -27.4083 -4.2790 -0.0000 -0.0000 15.9170 41.6776 -31.8946 -25.1913 -7.1250 0.0000 -0.0000 5.3989 -9.6645 -6.2542 -0.0000 -0.0000 0.0000 86.4232 9.1919 28.0658 -15.0796 24.2569 -3.2586 0.0000 0.0000 4.1274 -18.2525 -20.9074 6.7124 7.1250 -0.0000 -0.0000 10.5113 -51.5925 -1.7225
26.4955 15.7474 -0.5266 182.0500 -150.4090 -174.9270 0.0000 0.0000 0.0000 -14.8375 -1.1408 -29.2072 7.8285 15.9917 51.9426 2.3172 -13.8069 -27.6368 1.4988 -7.7331 -21.9062 0.0000 0.0000 0.0000 -4.5948 17.8420 -33.3702 -10.8015 -17.8365 62.1351 -0.0268 -4.8673 -7.7944 -0.7601 5.5678 -15.5354 -3.4935 -1.7201 4.1709 0.2611 -2.4087 3.7897 2.2832 -1.2964 1.7192 -7.0902 -14.3689 4.5929 14.0941 -18.5117 -16.1922 5.9289 -9.7398 -3.5247 -0.0000 0.0000 0.0000 -81.5900 -13.5911 55.9763 16.2609 -25.8731 -3.7591 -0.0000 -0.0000 15.8873 39.9286 -30.7477 -23.1667 -7.1250 0.0000 -0.0000 4.7577 -7.7067 -5.3702 -0.0000 0.0000 0.0000 86.3325 8.4338 25.5765 -13.9147 22.6127 -2.7952 0.0000 0.0000 4.5332 -18.0965 -22.1896 7.0357 7.1250 -0.0000 -0.0000 11.1578 -52.8615 -2.1800
26.5257 15.8052 -0.5031 181.9660 -151.5340 -174.6020 0.0000 0.0000 0.0000 -15.0103 -2.4438 -28.7512 7.5862 15.8063 51.0581 2.3168 -13.2798 -27.5734 1.5061 -7.7511 -21.9605 0.0000 0.0000 0.0000 -3.5167 18.0118 -32.9536 -10.6291 -17.7487 61.5711 -0.0503 -4.7400 -8.2998 -0.6910 5.3143 -14.8073 -3.3683 -1.8696 4.0925 0.3458 -2.6018 3.6774 2.3039 -1.3878 1.6577 -7.0432 -14.6151 4.5035 14.1511 -18.8293 -16.2535 5.9269 -9.9019 -3.4946 -0.0000 -0.0000 0.0000 -81.5223 -13.5057 54.8667 15.1412 -24.3425 -3.2839 -0.0000 -0.0000 16.2151 37.8398 -29.4102 -20.8794 -7.1250 0.0000 -0.0000 3.9332 -5.4645 -4.2996 -0.0000 -0.0000 0.0000 86.1340 7.5895 23.1775 -12.8219 21.0257 -2.3890 0.0000 0.0000 5.3247 -17.6738 -23.4257 7.2196 7.1250 -0.0000 -0.0000 12.1031 -54.0251 -2.7155
26.5505 15.8693 -0.4823 181.9070 -152.7500 -174.2730 0.0000 0.0000 0.0000 -15.1532 -3.8189 -28.2748 7.3315 15.6048 50.1173 2.2750 -12.8210 -27.2814 1.4875 -7.7052 -21.8223 0.0000 0.0000 0.0000 -2.3482 18.1235 -32.5422 -10.4382 -17.6490 60.9431 -0.0837 -4.3808 -8.7598 -0.7468 5.5201 -15.3980 -3.3333 -2.0405 4.0452 0.4730 -2.8274 3.5611 2.4203 -1.4978 1.5838 -7.0934 -14.8641 4.4068 14.2653 -19.1522 -16.3432 5.9530 -10.0657 -3.4552 0.0000 -0.0000 0.0000 -81.5682 -13.4272 53.3030 14.0670 -22.8305 -2.8541 -0.0000 -0.0000 16.9432 35.4951 -27.9716 -18.4950 -7.1250 0.0000 -0.0000 2.9298 -3.0977 -3.0878 0.0000 -0.0000 0.0000 85.8379 6.6445 20.8726 -11.8246 19.5410 -2.0432 0.0000 0.0000 6.5430 -16.8630 -24.5585 7.1805 7.1250 -0.0000 -0.0000 13.4511 -54.9966 -3.3469
26.5704 15.9386 -0.4633 181.8870 -154.0260 -173.9410 0.0000 0.0000 0.0000 -15.2911 -5.1704 -27.8091 7.0658 15.3870 49.1226 2.1941 -12.4411 -26.7642 1.4517 -7.6160 -21.5537 0.0000 0.0000 0.0000 -1.1262 18.1919 -32.1651 -10.2369 -17.5409 60.2772 -0.1280 -3.8174 -9.2557 -0.8714 5.9517 -16.6444 -3.3589 -2.2096 4.0053 0.6061 -3.0526 3.4458 2.5769 -1.6089 1.5113 -7.1935 -15.1298 4.3250 14.4503 -19.4936 -16.4712 6.0069 -10.2418 -3.4140 0.0000 -0.0000 0.0000 -81.6652 -13.3634 51.3171 13.0484 -21.3581 -2.4709 -0.0000 -0.0000 18.0339 33.0188 -26.5344 -16.1892 -7.1250 0.0000 -0.0000 1.7840 -0.7813 -1.8090 0.0000 -0.0000 0.0000 85.5120 5.5857 18.6229 -10.9401 18.1963 -1.7572 0.0000 0.0000 8.1987 -15.6558 -25.5236 6.8855 7.1250 -0.0000 -0.0000 15.1734 -55.7063 -4.0536
26.5859 16.0128 -0.4453 181.9010 -155.3440 -173.6040 0.0000 0.0000 0.0000 -15.4276 -6.4115 -27.3840 6.7915 15.1538 48.0812 2.0778 -12.1745 -26.0333 1.4084 -7.5064 -21.2245 0.0000 0.0000 0.0000 0.1322 18.2550 -31.8232 -10.0282 -17.4257 59.5825 -0.1831 -3.0851 -9.8277 -0.9743 6.2839 -17.6103 -3.4486 -2.3915 3.9648 0.7605 -3.2967 3.3244 2.7917 -1.7310 1.4409 -7.3732 -15.3902 4.2548 14.6762 -19.8299 -16.6163 6.0826 -10.4145 -3.3665 -0.0000 0.0000 0.0000 -81.8272 -13.2878 48.8367 12.0850 -19.9320 -2.1312 -0.0000 -0.0000 19.4640 30.5921 -25.1545 -14.1064 -7.1250 0.0000 -0.0000 0.5906 1.3674 -0.5764 -0.0000 0.0000 0.0000 85.1352 4.4086 16.5467 -10.1821 17.0238 -1.5278 0.0000 0.0000 10.1974 -14.1763 -26.2867 6.3830 7.1250 -0.0000 -0.0000 17.1047 -56.1479 -4.7757
26.5976 16.0918 -0.4278 181.9380 -156.7120 -173.2510 0.0000 0.0000 0.0000 -15.5523 -7.5032 -27.0253 6.5136 14.9082 47.0098 1.9296 -12.0591 -25.0987 1.3611 -7.3846 -20.8598 0.0000 0.0000 0.0000 1.4293 18.3069 -31.5244 -9.8127 -17.3032 58.8606 -0.2437 -2.2449 -10.4276 -1.0300 6.4557 -18.1124 -3.5539 -2.5850 3.9166 0.9085 -3.5563 3.1952 3.0085 -1.8606 1.3706 -7.5695 -15.6441 4.1995 14.9307 -20.1559 -16.7715 6.1689 -10.5836 -3.3190 0.0000 -0.0000 0.0000 -81.9729 -13.1904 45.9652 11.1961 -18.5882 -1.8379 -0.0000 -0.0000 21.1176 28.3900 -23.8394 -12.3224 -7.1250 0.0000 -0.0000 -0.5376 3.3111 0.5057 0.0000 -0.0000 0.0000 84.7739 3.1069 14.7097 -9.5665 16.0587 -1.3526 0.0000 0.0000 12.4120 -12.6716 -26.8709 5.8027 7.1250 -0.0000 -0.0000 18.9805 -56.3996 -5.4426
26.6061 16.1747 -0.4110 181.9900 -158.1500 -172.8790 0.0000 0.0000 0.0000 -15.6534 -8.4274 -26.7604 6.2397 14.6567 45.9364 1.7550 -12.1196 -23.9834 1.3209 -7.2789 -20.5444 0.0000 0.0000 0.0000 2.7741 18.3209 -31.2812 -9.5900 -17.1728 58.1091 -0.3017 -1.4028 -10.9832 -1.1186 6.7187 -18.8846 -3.6488 -2.7995 3.8665 1.0387 -3.8436 3.0525 3.2019 -2.0030 1.2902 -7.7517 -15.8925 4.1504 15.1915 -20.4731 -16.9085 6.2532 -10.7493 -3.2673 0.0000 0.0000 0.0000 -82.0434 -13.0431 42.8308 10.4110 -17.3799 -1.5955 -0.0000 -0.0000 22.8154 26.5322 -22.5608 -10.8441 -7.1250 0.0000 -0.0000 -1.5096 5.0787 1.3706 0.0000 0.0000 0.0000 84.4592 1.6677 13.2877 -9.1063 15.3297 -1.2281 0.0000 0.0000 14.6389 -11.3367 -27.3075 5.2550 7.1250 -0.0000 -0.0000 20.6037 -56.5377 -6.0053
26.6123 16.2599 -0.3947 182.0500 -159.6670 -172.4800 0.0000 0.0000 0.0000 -15.7192 -9.1623 -26.6265 5.9796 14.4086 44.8999 1.5593 -12.3892 -22.7166 1.2963 -7.2136 -20.3496 0.0000 0.0000 0.0000 4.1585 18.2867 -31.1144 -9.3608 -17.0344 57.3296 -0.3545 -0.5759 -11.4693 -1.2834 7.1789 -20.2466 -3.7375 -3.0495 3.8211 1.1678 -4.1782 2.8834 3.3924 -2.1677 1.1858 -7.9377 -16.1353 4.0558 15.4023 -20.7905 -16.9456 6.3111 -10.9092 -3.1828 0.0000 0.0000 0.0000 -82.0320 -12.8035 39.5678 9.7612 -16.3652 -1.4069 -0.0000 -0.0000 24.3444 25.0343 -21.2759 -9.6185 -7.1250 0.0000 -0.0000 -2.2972 6.7386 2.0134 0.0000 0.0000 0.0000 84.1580 0.0643 12.5796 -8.8137 14.8630 -1.1519 0.0000 0.0000 16.5673 -10.1590 -27.6139 4.7479 7.1250 -0.0000 -0.0000 21.9876 -56.5818 -6.4596
26.6168 16.3451 -0.3782 182.1100 -161.2470 -172.0380 0.0000 0.0000 0.0000 -15.7364 -9.6986 -26.6631 5.7438 14.1754 43.9447 1.3443 -12.9109 -21.3181 1.2715 -7.1467 -20.1509 0.0000 0.0000 0.0000 5.5601 18.2149 -31.0564 -9.1278 -16.8893 56.5310 -0.4036 0.3324 -11.8896 -1.5011 7.7388 -21.9234 -3.7698 -3.3106 3.7527 1.2651 -4.5252 2.6846 3.5186 -2.3361 1.0600 -8.0643 -16.3993 3.8988 15.5375 -21.1423 -16.8415 6.3218 -11.0806 -3.0572 0.0000 -0.0000 0.0000 -81.8548 -12.4438 36.5474 9.2901 -15.6216 -1.2771 -0.0000 -0.0000 25.3618 23.8304 -19.8988 -8.5494 -7.1250 0.0000 -0.0000 -2.9237 8.4136 2.4678 0.0000 -0.0000 0.0000 83.9283 -1.7301 12.6871 -8.6949 14.6729 -1.1216 0.0000 0.0000 17.9654 -9.0862 -27.8088 4.2669 7.1250 -0.0000 -0.0000 23.1904 -56.5421 -6.8169
26.6214 16.4280 -0.3606 182.1510 -162.8760 -171.5490 0.0000 0.0000 0.0000 -15.6920 -10.0372 -26.8892 5.5424 13.9697 43.1163 1.1068 -13.7250 -19.7886 1.2081 -6.9729 -19.6352 0.0000 0.0000 0.0000 6.9733 18.1103 -31.1243 -8.8966 -16.7407 55.7319 -0.4483 1.4320 -12.2316 -1.7195 8.2556 -23.4932 -3.7304 -3.5924 3.6454 1.3576 -4.8967 2.4635 3.5982 -2.5151 0.9300 -8.1702 -16.6699 3.6712 15.5899 -21.5118 -16.6108 6.2890 -11.2529 -2.8930 0.0000 -0.0000 0.0000 -81.5410 -11.9553 33.9515 9.0113 -15.1785 -1.2031 -0.0000 -0.0000 25.6320 22.8358 -18.4266 -7.5817 -7.1250 0.0000 -0.0000 -3.4394 10.1330 2.7858 0.0000 -0.0000 0.0000 83.6970 -3.6777 13.7263 -8.7409 14.7466 -1.1333 0.0000 0.0000 18.6761 -8.0682 -27.9096 3.7961 7.1250 -0.0000 -0.0000 24.2702 -56.4271 -7.0918
